<?xml version="1.0" encoding="utf-8"?>
<!-- Generator: Adobe Illustrator 16.0.0, SVG Export Plug-In . SVG Version: 6.00 Build 0)  -->
<!DOCTYPE svg PUBLIC "-//W3C//DTD SVG 1.1//EN" "http://www.w3.org/Graphics/SVG/1.1/DTD/svg11.dtd">
<svg version="1.1" xmlns="http://www.w3.org/2000/svg" xmlns:xlink="http://www.w3.org/1999/xlink" x="0px" y="0px" width="125px"
	 height="40px" viewBox="0 0 125 40" enable-background="new 0 0 125 40" xml:space="preserve">
<g id="Layer_1">
</g>
<g id="Layer_2">
	<g>
		<path fill="#2EBD59" d="M14.9,5.1C6.7,5.1,0,11.8,0,20c0,8.2,6.7,14.9,14.9,14.9c8.2,0,14.9-6.7,14.9-14.9
			C29.8,11.8,23.2,5.1,14.9,5.1L14.9,5.1z M21.8,26.6c-0.3,0.4-0.8,0.6-1.3,0.3c-3.5-2.1-7.9-2.6-13.1-1.4c-0.5,0.1-1-0.2-1.1-0.7
			c-0.1-0.5,0.2-1,0.7-1.1c5.7-1.3,10.6-0.7,14.5,1.7C21.9,25.6,22,26.2,21.8,26.6L21.8,26.6z M23.6,22.5c-0.3,0.5-1.1,0.7-1.6,0.4
			c-4-2.5-10.1-3.2-14.9-1.7c-0.6,0.2-1.3-0.2-1.5-0.8c-0.2-0.6,0.2-1.3,0.8-1.5c5.4-1.6,12.2-0.8,16.8,2
			C23.8,21.3,23.9,22,23.6,22.5L23.6,22.5z M23.8,18.3c-4.8-2.9-12.7-3.1-17.3-1.7c-0.7,0.2-1.5-0.2-1.7-0.9
			c-0.2-0.7,0.2-1.5,0.9-1.7c5.3-1.6,14-1.3,19.6,2c0.7,0.4,0.9,1.3,0.5,1.9C25.3,18.5,24.4,18.7,23.8,18.3L23.8,18.3z"/>
		<path fill="#2EBD59" d="M40.6,18.9c-2.6-0.6-3-1-3-2c0-0.9,0.8-1.4,2-1.4c1.2,0,2.3,0.4,3.5,1.3c0,0,0.1,0,0.1,0
			c0,0,0.1,0,0.1-0.1l1.3-1.8c0.1-0.1,0-0.2,0-0.2c-1.4-1.2-3.1-1.7-4.9-1.7c-2.8,0-4.7,1.7-4.7,4.1c0,2.6,1.7,3.5,4.6,4.2
			c2.5,0.6,2.9,1,2.9,1.9c0,0.9-0.8,1.5-2.2,1.5c-1.5,0-2.7-0.5-4.1-1.7c0,0-0.1,0-0.1,0c0,0-0.1,0-0.1,0.1l-1.4,1.7
			c-0.1,0.1-0.1,0.2,0,0.2c1.6,1.4,3.6,2.2,5.7,2.2c3,0,4.9-1.6,4.9-4.2C45,20.8,43.7,19.6,40.6,18.9L40.6,18.9z"/>
		<path fill="#2EBD59" d="M51.8,16.3c-1.3,0-2.4,0.5-3.2,1.6v-1.2c0-0.1-0.1-0.2-0.2-0.2h-2.3c-0.1,0-0.2,0.1-0.2,0.2v13.1
			c0,0.1,0.1,0.2,0.2,0.2h2.3c0.1,0,0.2-0.1,0.2-0.2v-4.1c0.9,1,1.9,1.5,3.2,1.5c2.4,0,4.9-1.9,4.9-5.4
			C56.7,18.2,54.2,16.3,51.8,16.3L51.8,16.3z M54,21.7c0,1.8-1.1,3.1-2.7,3.1c-1.6,0-2.8-1.3-2.8-3.1c0-1.8,1.2-3.1,2.8-3.1
			C52.8,18.7,54,19.9,54,21.7L54,21.7z"/>
		<path fill="#2EBD59" d="M62.9,16.3c-3.1,0-5.5,2.4-5.5,5.5c0,3,2.4,5.4,5.5,5.4c3.1,0,5.6-2.4,5.6-5.4
			C68.5,18.7,66,16.3,62.9,16.3L62.9,16.3z M62.9,24.8c-1.7,0-2.9-1.3-2.9-3.1c0-1.8,1.2-3.1,2.9-3.1c1.7,0,2.9,1.3,2.9,3.1
			C65.8,23.5,64.6,24.8,62.9,24.8L62.9,24.8z"/>
		<path fill="#2EBD59" d="M75.1,16.5h-2.5v-2.6c0-0.1-0.1-0.2-0.2-0.2h-2.3c-0.1,0-0.2,0.1-0.2,0.2v2.6h-1.1c-0.1,0-0.2,0.1-0.2,0.2
			v2c0,0.1,0.1,0.2,0.2,0.2h1.1V24c0,2.1,1,3.1,3.1,3.1c0.8,0,1.5-0.2,2.2-0.5c0.1,0,0.1-0.1,0.1-0.1v-1.9c0-0.1,0-0.1-0.1-0.1
			c-0.1,0-0.1,0-0.2,0c-0.4,0.2-0.9,0.3-1.4,0.3c-0.7,0-1.1-0.3-1.1-1.1v-4.8h2.5c0.1,0,0.2-0.1,0.2-0.2v-2
			C75.3,16.6,75.2,16.5,75.1,16.5L75.1,16.5z"/>
		<path fill="#2EBD59" d="M83.9,16.5v-0.3c0-0.9,0.4-1.4,1.2-1.4c0.5,0,0.9,0.1,1.3,0.2c0.1,0,0.1,0,0.2,0c0,0,0.1-0.1,0.1-0.1V13
			c0-0.1,0-0.1-0.1-0.2c-0.5-0.1-1-0.3-1.9-0.3c-2.1,0-3.3,1.2-3.3,3.5v0.5h-1.1c-0.1,0-0.2,0.1-0.2,0.2v2c0,0.1,0.1,0.2,0.2,0.2
			h1.1v7.9c0,0.1,0.1,0.2,0.2,0.2h2.3c0.1,0,0.2-0.1,0.2-0.2v-7.9h2.2l3.3,7.9c-0.4,0.8-0.7,1-1.2,1c-0.4,0-0.8-0.1-1.3-0.4
			c0,0-0.1,0-0.1,0c0,0-0.1,0-0.1,0.1l-0.8,1.7c0,0.1,0,0.2,0.1,0.2c0.8,0.4,1.6,0.6,2.5,0.6c1.7,0,2.6-0.8,3.5-2.9l4-10.3
			c0-0.1,0-0.1,0-0.2c0,0-0.1-0.1-0.1-0.1h-2.4c-0.1,0-0.1,0-0.2,0.1l-2.5,7l-2.7-7c0-0.1-0.1-0.1-0.2-0.1L83.9,16.5L83.9,16.5z"/>
		<path fill="#2EBD59" d="M78.8,16.5h-2.3c-0.1,0-0.2,0.1-0.2,0.2v10.1c0,0.1,0.1,0.2,0.2,0.2h2.3c0.1,0,0.2-0.1,0.2-0.2V16.7
			C79,16.6,78.9,16.5,78.8,16.5L78.8,16.5z"/>
		<path fill="#2EBD59" d="M77.7,11.9c-0.9,0-1.7,0.7-1.7,1.7c0,0.9,0.7,1.7,1.7,1.7s1.7-0.7,1.7-1.7C79.3,12.7,78.6,11.9,77.7,11.9
			L77.7,11.9z"/>
		<path fill="#2EBD59" d="M97.9,19.8c-0.9,0-1.6-0.7-1.6-1.6s0.7-1.6,1.6-1.6c0.9,0,1.6,0.7,1.6,1.6C99.5,19,98.8,19.8,97.9,19.8
			L97.9,19.8z M97.9,16.7c-0.8,0-1.5,0.7-1.5,1.5s0.6,1.5,1.5,1.5c0.8,0,1.5-0.7,1.5-1.5C99.3,17.3,98.7,16.7,97.9,16.7L97.9,16.7z
			 M98.2,18.3l0.5,0.6h-0.4l-0.4-0.6h-0.4v0.6h-0.3v-1.7H98c0.4,0,0.7,0.2,0.7,0.5C98.6,18.1,98.5,18.2,98.2,18.3L98.2,18.3z
			 M98,17.5h-0.4v0.5H98c0.2,0,0.3-0.1,0.3-0.3C98.3,17.6,98.2,17.5,98,17.5L98,17.5z"/>
	</g>
</g>
<g id="Layer_3">
</g>
<g id="Layer_4">
</g>
</svg>
