<svg xmlns="http://www.w3.org/2000/svg" width="125" height="40" viewBox="0 0 125 40"><linearGradient id="a" gradientUnits="userSpaceOnUse" x1="21.462" y1="35.085" x2="10.136" y2="5.578"><stop offset="0" stop-color="#22C9FD"/><stop offset=".115" stop-color="#4996FE"/><stop offset=".222" stop-color="#6B6BFF"/><stop offset=".418" stop-color="#9B5DE0"/><stop offset=".625" stop-color="#C950C3"/><stop offset=".729" stop-color="#DA4BB8"/><stop offset=".747" stop-color="#DE4DAE"/><stop offset=".824" stop-color="#EC5485"/><stop offset=".895" stop-color="#F65968"/><stop offset=".956" stop-color="#FD5C56"/><stop offset="1" stop-color="#FF5D50"/></linearGradient><circle fill="url(#a)" cx="15.8" cy="20.3" r="15.8"/><linearGradient id="b" gradientUnits="userSpaceOnUse" x1="15.799" y1="34.736" x2="15.799" y2="5.785"><stop offset="0" stop-color="#DDE2E7"/><stop offset=".169" stop-color="#E5E8EC"/><stop offset=".65" stop-color="#F7F7F9"/><stop offset="1" stop-color="#FDFCFD"/></linearGradient><circle fill="url(#b)" cx="15.8" cy="20.3" r="14.5"/><linearGradient id="c" gradientUnits="userSpaceOnUse" x1="20.885" y1="28.009" x2="10.713" y2="12.928"><stop offset="0" stop-color="#22C9FD"/><stop offset=".049" stop-color="#2ABEFD"/><stop offset=".389" stop-color="#6B6BFF"/><stop offset=".527" stop-color="#756AF3"/><stop offset=".559" stop-color="#8D68D6"/><stop offset=".606" stop-color="#AC65B2"/><stop offset=".63" stop-color="#B864A4"/><stop offset=".733" stop-color="#D56182"/><stop offset=".838" stop-color="#EC5F67"/><stop offset=".93" stop-color="#FA5D56"/><stop offset="1" stop-color="#FF5D50"/></linearGradient><path fill-rule="evenodd" clip-rule="evenodd" fill="url(#c)" d="M23 10.7c0-.5-.3-.9-.8-.8 0 0-8.6 1.7-9.6 1.9-.6.1-.9.5-.8 1.2v11.1c0 1.1-.9.8-2.2 1.2-2.1.5-2.2 1.5-2.3 1.8-.2 1.2.1 2.5 1.7 2.9.7.2 1.1.1 1.7 0 1.1-.2 1.6-.7 2.1-1.7.2-.5.2-1.2.2-1.7v-9.3c0-.5.1-.7.7-.8 2.5-.5 5.1-1 7.6-1.5.6-.1.6.2.6.8v6.6c0 1.3-2.5.5-4.1 2-.6.5-.7 1.6-.5 2.1.3.9.8 1.4 1.7 1.6.5.1 2.3.3 3.4-1 .6-1.1.6-1.6.6-2.4v-14z"/><g><linearGradient id="d" gradientUnits="userSpaceOnUse" x1="15.799" y1="34.736" x2="15.799" y2="5.785"><stop offset="0" stop-color="#DDE2E7"/><stop offset=".169" stop-color="#E5E8EC"/><stop offset=".65" stop-color="#F7F7F9"/><stop offset="1" stop-color="#FDFCFD"/></linearGradient><path fill="url(#d)" d="M15.8 5.8c-8 0-14.5 6.5-14.5 14.5s6.5 14.5 14.5 14.5 14.5-6.5 14.5-14.5S23.8 5.8 15.8 5.8zm6.5 21.1c-1.1 1.3-2.8 1.1-3.4 1-.9-.2-1.4-.7-1.7-1.6-.2-.6-.1-1.6.5-2.1 1.6-1.5 4.1-.7 4.1-2v-6.6c0-.6-.1-.9-.6-.8-2.5.5-5.1 1-7.6 1.5-.5.1-.7.3-.7.8v9.3c0 .5 0 1.3-.2 1.7-.5 1-1 1.5-2.1 1.7-.6.2-1 .2-1.7.1-1.6-.4-1.9-1.7-1.7-2.9l.2-.4c.4-.7.7-.9 2.1-1.4 1.2-.4 2.2-.1 2.2-1.2V12.9c0-.7.2-1.1.8-1.2 1-.2 9.6-1.9 9.6-1.9.5-.1.8.3.8.8v14c.1.9.1 1.4-.6 2.3z"/></g><g fill="#333"><path d="M39.2 13.9c0 .6-.4 1.1-1.2 1.1-.7 0-1.1-.5-1.1-1.1 0-.7.5-1.2 1.2-1.2.6.1 1.1.6 1.1 1.2zM37.1 27V16.8H39V27h-1.9zM44.8 14.3h-4.3v-1.6H51v1.6h-4.3V27h-1.9V14.3zM60.1 24.2c0 1.1 0 2 .1 2.8h-1.6l-.1-1.7c-.5.8-1.6 1.9-3.4 1.9-1.6 0-3.5-.9-3.5-4.5v-6h1.9v5.7c0 1.9.6 3.2 2.3 3.2 1.2 0 2.1-.9 2.4-1.7.1-.3.2-.6.2-.9v-6.3h1.9v7.5zM63.2 19.6c0-1.1 0-1.9-.1-2.8h1.6l.1 1.7c.5-1 1.7-1.9 3.4-1.9 1.4 0 3.6.8 3.6 4.3V27H70v-5.9c0-1.6-.6-3-2.4-3-1.2 0-2.2.9-2.5 1.9-.1.2-.1.5-.1.9V27h-1.9v-7.4zM75.9 22.2c0 2.5 1.6 3.5 3.5 3.5 1.3 0 2.1-.2 2.8-.5l.3 1.3c-.7.3-1.8.6-3.4.6-3.1 0-5-2.1-5-5.1 0-3.1 1.8-5.5 4.8-5.5 3.3 0 4.2 2.9 4.2 4.8 0 .4 0 .7-.1.9h-7.1zm5.5-1.3c0-1.2-.5-3-2.6-3-1.9 0-2.7 1.7-2.8 3h5.4zM85.2 25.1c.5.4 1.5.7 2.4.7 1.3 0 2-.7 2-1.5 0-.9-.5-1.4-1.9-1.9-1.8-.7-2.7-1.7-2.7-2.9 0-1.6 1.3-3 3.5-3 1 0 1.9.3 2.5.6l-.5 1.4c-.4-.3-1.1-.6-2.1-.6-1.1 0-1.7.6-1.7 1.4 0 .8.6 1.2 1.9 1.7 1.8.7 2.7 1.6 2.7 3.1 0 1.8-1.4 3.1-3.8 3.1-1.1 0-2.2-.3-2.9-.7l.6-1.4z"/></g></svg>