<?xml version="1.0" encoding="utf-8"?>
<!-- Generator: Adobe Illustrator 16.0.0, SVG Export Plug-In . SVG Version: 6.00 Build 0)  -->
<!DOCTYPE svg PUBLIC "-//W3C//DTD SVG 1.1//EN" "http://www.w3.org/Graphics/SVG/1.1/DTD/svg11.dtd">
<svg version="1.1" xmlns="http://www.w3.org/2000/svg" xmlns:xlink="http://www.w3.org/1999/xlink" x="0px" y="0px" width="125px"
	 height="40px" viewBox="0 0 125 40" enable-background="new 0 0 125 40" xml:space="preserve">
<g id="Layer_1">
	<g>
		<rect y="29.2" fill="#E10613" width="6.7" height="2"/>
		<rect y="26.6" fill="#E10613" width="6.7" height="2"/>
		<rect y="23.9" fill="#E10613" width="6.7" height="2"/>
		<rect y="21.3" fill="#F1977A" width="6.7" height="2"/>
		<rect y="18.7" fill="#F1977A" width="6.7" height="2"/>
		<rect x="7.5" y="29.2" fill="#FFEB00" width="6.7" height="2"/>
		<rect x="7.5" y="26.6" fill="#FFEB00" width="6.7" height="2"/>
		<rect x="7.5" y="23.9" fill="#FFEB00" width="6.7" height="2"/>
		<rect x="14.9" y="29.2" fill="#E4007E" width="6.7" height="2"/>
		<rect x="14.9" y="26.6" fill="#E4007E" width="6.7" height="2"/>
		<rect x="14.9" y="23.9" fill="#E4007E" width="6.7" height="2"/>
		<rect x="14.9" y="21.3" fill="#F09CC2" width="6.7" height="2"/>
		<rect x="14.9" y="18.7" fill="#F09CC2" width="6.7" height="2"/>
		<rect x="14.9" y="16.1" fill="#F09CC2" width="6.7" height="2"/>
		<rect x="14.9" y="13.4" fill="#F09CC2" width="6.7" height="2"/>
		<rect x="22.4" y="29.2" fill="#C6D200" width="6.7" height="2"/>
		<rect x="22.4" y="26.6" fill="#C6D200" width="6.7" height="2"/>
		<rect x="22.4" y="23.9" fill="#C6D200" width="6.7" height="2"/>
		<rect x="22.4" y="21.3" fill="#E3E799" width="6.7" height="2"/>
		<rect x="22.4" y="18.7" fill="#E3E799" width="6.7" height="2"/>
		<rect x="29.9" y="29.2" fill="#40BEEE" width="6.7" height="2"/>
		<rect x="29.9" y="26.6" fill="#40BEEE" width="6.7" height="2"/>
		<rect x="29.9" y="23.9" fill="#40BEEE" width="6.7" height="2"/>
		<rect x="29.9" y="21.3" fill="#BBE2F8" width="6.7" height="2"/>
		<rect x="29.9" y="18.7" fill="#BBE2F8" width="6.7" height="2"/>
		<rect x="29.9" y="16.1" fill="#BBE2F8" width="6.7" height="2"/>
		<rect x="29.9" y="13.4" fill="#BBE2F8" width="6.7" height="2"/>
		<rect x="29.9" y="10.8" fill="#BBE2F8" width="6.7" height="2"/>
		<g>
			<path fill="#000100" d="M39.2,8.8h5c5,0,5.5,1.8,5.5,8.3v6.7c0,5.7-1.2,7.5-6.1,7.5h-4.4V8.8z M42.2,28.6h1.6
				c2.3,0,2.7-1.2,2.7-5.1v-7.7c0-3.3-0.3-4.4-2.9-4.4h-1.3V28.6z"/>
			<path fill="#000100" d="M50.9,8.8h8.5v2.7h-5.5v7h5v2.6h-5v7.4h5.5v2.7h-8.5V8.8z"/>
			<path fill="#000100" d="M60.6,8.8h8.5v2.7h-5.5v7h5v2.6h-5v7.4h5.5v2.7h-8.5V8.8z"/>
			<path fill="#000100" d="M81.4,8.8h8.5v2.7h-5.5v7h5v2.6h-5v7.4h5.5v2.7h-8.5V8.8z"/>
			<path fill="#000100" d="M70.3,28.6l7-17.2h-7V8.8h9.9v2.6l-6.9,17.2h6.9v2.6l-9.9,0V28.6z"/>
			<path fill="#000100" d="M91.1,8.8h4.8c4.5,0,4.8,1.2,4.8,6.1c0,3-0.3,4.5-2.8,5.3l0,0c2.1,0.2,2.8,1.3,2.8,3.4v4.9
				c0,0.8,0,1.9,0.2,2.8h-3c-0.3-0.6-0.2-1.1-0.2-2v-5.1c0-2.1-0.4-2.6-2.5-2.6h-1.2v9.7l-3,0V8.8z M94.1,18.7H95
				c2.5,0,2.8-0.3,2.8-3.7c0-3.3-0.3-3.6-2.2-3.6h-1.5V18.7z"/>
		</g>
	</g>
</g>
<g id="Layer_2">
</g>
<g id="Layer_3">
</g>
<g id="Layer_4">
</g>
</svg>
