<svg xmlns="http://www.w3.org/2000/svg" width="1480.865" height="232.611" viewBox="0 0 1480.865 232.611">
  <defs>
    <style>
      .a {
        fill: #211f1f;
      }

      .b {
        fill: #6399a8;
      }
    </style>
  </defs>
  <title>bandcamp-logotype-color</title>
  <g>
    <path class="a" d="M457.56,139.986h28.325v67.853h0.5c7.7-12.849,23.852-20.819,38.263-20.819,40.495,0,60.13,31.883,60.13,70.7,0,35.717-17.39,69.389-55.412,69.389-17.394,0-36.028-4.36-44.479-21.843H484.4V323.52H457.559V139.986Zm63.358,70.166c-23.845,0-36.028,18.768-36.028,47.041,0,26.725,13.174,46.784,36.028,46.784,25.845,0,35.534-23.651,35.534-46.784-0.018-24.157-12.195-47.041-35.542-47.041" transform="translate(-146.086 -139.986)"/>
    <path class="a" d="M804.194,187.02c-16.9,0-31.558,9-40.008,23.655l-0.495-.523v-19.53H736.855V303.8c-16.154.184-17.659,0.184-18.892,0.184-5.216,0-6.711-2.828-6.711-10.026v-68.38c0-28.009-26.335-38.557-51.439-38.557-28.326,0-56.4,10.02-58.379,44.217h28.319c1.247-14.4,12.421-21.084,28.325-21.084,11.428,0,26.586,2.836,26.586,18,0,17.221-18.138,14.905-38.514,18.768-23.853,2.818-49.443,8.231-49.443,41.373,0,25.971,20.869,38.815,43.973,38.815,15.161,0,33.295-4.884,44.483-16.174,2.227,12.071,10.436,16.174,21.863,16.174,4.72,0,13.664-1.793,57.975-3.335v-0.262h0.177V245.122c0-19.542,12.178-34.966,31.058-34.966,16.647,0,24.6,9,25.1,29.817v83.539h28.337V232.267c0.055-29.813-17.595-45.243-45.43-45.243M682.98,278.791c0,18.5-19.382,25.194-31.8,25.194-9.943,0-26.1-3.869-26.1-16.97,0-15.428,10.938-20.058,23.119-22.115,12.418-2.311,26.086-2.047,34.784-7.959v21.85Z" transform="translate(-146.086 -139.986)"/>
    <path class="a" d="M995.533,323.513H968.694V305.521H968.2c-7.452,15.166-23.612,21.585-39.76,21.585-40.494,0-60.129-31.1-60.129-70.939,0-48.065,27.584-69.144,55.665-69.144,16.143,0,34.029,6.173,42.728,20.815h0.506V139.992h28.321V323.513Zm-63.358-19.53c25.341,0,36.03-23.909,36.03-47.048,0-29.291-13.664-46.782-35.534-46.782-26.589,0-36.032,24.422-36.032,48.322,0,22.879,10.929,45.5,35.541,45.5" transform="translate(-146.086 -139.986)"/>
    <path class="a" d="M1108.1,235.094c-2.239-16.194-13.666-24.939-29.318-24.939-14.668,0-35.286,7.973-35.286,48.329,0,22.108,9.439,45.5,34.042,45.5,16.4,0,27.822-11.323,30.563-30.346h28.323c-5.22,34.443-25.838,53.466-58.886,53.466-40.255,0-62.367-29.552-62.367-68.622,0-40.1,21.12-71.456,63.36-71.456,29.815,0,55.167,15.421,57.893,48.067H1108.1Z" transform="translate(-146.086 -139.986)"/>
    <path class="a" d="M1431.143,187.02c-18.634,0-30.811,8.487-40.248,22.106-5.72-15.157-20.38-22.106-36.033-22.106-20.379,0-31.063,9-39.51,22.106h-0.744v-18.5H1287.76V303.8c-16.152.184-17.656,0.184-18.9,0.184-5.218,0-6.7-2.828-6.7-10.026v-68.38c0-28.009-26.338-38.557-51.443-38.557-28.318,0-56.4,10.02-58.392,44.217h28.335c1.234-14.4,12.424-21.084,28.327-21.084,11.428,0,26.584,2.836,26.584,18,0,17.221-18.142,14.905-38.517,18.768-23.854,2.818-49.447,8.231-49.447,41.373,0,25.971,20.867,38.815,43.978,38.815,15.161,0,33.3-4.884,44.478-16.174,2.236,12.071,10.433,16.174,21.872,16.174,4.715,0,13.664-1.793,57.566-3.335v-0.262h0.58V244.6c0-22.1,13.423-34.448,28.084-34.448,17.144,0,22.614,9.762,22.614,28.026v85.33H1395.1V245.632c0-22.366,8.2-35.474,27.334-35.474,22.114,0,23.354,14.65,23.354,35.736v77.617h28.325V231.754c0.017-32.393-15.882-44.73-42.949-44.73m-197.317,91.768c0,18.5-19.376,25.194-31.807,25.194-9.934,0-26.085-3.869-26.085-16.97,0-15.428,10.939-20.058,23.105-22.115,12.431-2.311,26.1-2.047,34.786-7.959v21.85Z" transform="translate(-146.086 -139.986)"/>
    <path class="a" d="M1499.731,190.622h26.837v17.992h0.494c7.951-15.16,23.356-21.595,39.757-21.595,40.5,0,60.133,31.883,60.133,70.7,0,35.717-17.4,69.389-55.407,69.389-16.4,0-34.048-6.166-42.985-20.808h-0.5v66.3h-28.328V190.634Zm63.358,19.53c-23.853,0-36.032,18.768-36.032,47.041,0,26.725,13.167,46.784,36.032,46.784,25.837,0,35.534-23.651,35.534-46.784,0-24.157-12.194-47.041-35.541-47.041" transform="translate(-146.086 -139.986)"/>
    <polygon class="b" points="212.447 183.134 0 183.134 99.209 0 311.658 0 212.447 183.134"/>
  </g>
</svg>
